<mxfile modified="2024-03-15T05:23:28.623Z" host="app.diagrams.net" agent="Mozilla/5.0 (Macintosh; Intel Mac OS X 10_15_7) AppleWebKit/537.36 (KHTML, like Gecko) Chrome/122.0.0.0 Safari/537.36 Edg/122.0.0.0" etag="45ZzrD6yR9_TlI-jeM3V" version="24.0.6" type="device">
  <diagram id="Ht1M8jgEwFfnCIfOTk4-" name="Page-1">
    <mxGraphModel dx="2595" dy="2364" grid="1" gridSize="10" guides="1" tooltips="1" connect="1" arrows="1" fold="1" page="1" pageScale="1" pageWidth="1169" pageHeight="827" math="0" shadow="0">
      <root>
        <mxCell id="0" />
        <mxCell id="1" parent="0" />
        <mxCell id="_c_h5klEpq9rhXISuvbN-33" value="" style="rounded=0;whiteSpace=wrap;html=1;labelBackgroundColor=none;fontColor=#000000;" parent="1" vertex="1">
          <mxGeometry x="-30" y="-850" width="1230" height="700" as="geometry" />
        </mxCell>
        <mxCell id="_c_h5klEpq9rhXISuvbN-18" value="Peer Network 192.168.0.0/24" style="fontStyle=0;verticalAlign=top;align=center;spacingTop=-2;fillColor=none;rounded=0;whiteSpace=wrap;html=1;strokeColor=#4376BB;strokeWidth=1;dashed=0;container=1;collapsible=0;expand=0;recursiveResize=0;" parent="1" vertex="1">
          <mxGeometry x="790" y="-590" width="370" height="230" as="geometry" />
        </mxCell>
        <mxCell id="_c_h5klEpq9rhXISuvbN-20" value="Peer VPN&amp;nbsp;" style="outlineConnect=0;fontColor=#232F3E;gradientColor=none;fillColor=#5A30B5;strokeColor=none;dashed=0;verticalLabelPosition=bottom;verticalAlign=top;align=center;html=1;fontSize=12;fontStyle=0;aspect=fixed;pointerEvents=1;shape=mxgraph.aws4.vpn_gateway;" parent="_c_h5klEpq9rhXISuvbN-18" vertex="1">
          <mxGeometry x="240" y="76" width="78" height="78" as="geometry" />
        </mxCell>
        <mxCell id="jj34MWY0AXloyqTfAjvP-5" value="" style="verticalAlign=top;verticalLabelPosition=bottom;labelPosition=center;align=center;html=1;outlineConnect=0;fillColor=#e1d5e7;strokeColor=#9673a6;gradientDirection=north;strokeWidth=2;shape=mxgraph.networks.firewall;" parent="_c_h5klEpq9rhXISuvbN-18" vertex="1">
          <mxGeometry x="40" y="95" width="40" height="40" as="geometry" />
        </mxCell>
        <mxCell id="jj34MWY0AXloyqTfAjvP-2" value="" style="shape=link;html=1;rounded=0;width=-6;" parent="_c_h5klEpq9rhXISuvbN-18" source="jj34MWY0AXloyqTfAjvP-5" target="_c_h5klEpq9rhXISuvbN-20" edge="1">
          <mxGeometry width="100" relative="1" as="geometry">
            <mxPoint x="-353.62" y="114.5" as="sourcePoint" />
            <mxPoint x="-253.62" y="114.5" as="targetPoint" />
          </mxGeometry>
        </mxCell>
        <mxCell id="jj34MWY0AXloyqTfAjvP-7" value="192.168.0.1" style="text;html=1;align=center;verticalAlign=middle;resizable=0;points=[];autosize=1;strokeColor=none;fillColor=none;" parent="_c_h5klEpq9rhXISuvbN-18" vertex="1">
          <mxGeometry x="160" y="120" width="90" height="30" as="geometry" />
        </mxCell>
        <mxCell id="jj34MWY0AXloyqTfAjvP-8" value="NAT device" style="text;html=1;align=center;verticalAlign=middle;resizable=0;points=[];autosize=1;strokeColor=none;fillColor=none;" parent="_c_h5klEpq9rhXISuvbN-18" vertex="1">
          <mxGeometry x="30" y="60" width="80" height="30" as="geometry" />
        </mxCell>
        <mxCell id="jj34MWY0AXloyqTfAjvP-9" value="169.255.10.8&lt;div&gt;on-prem.test.com&lt;/div&gt;" style="text;html=1;align=center;verticalAlign=middle;resizable=0;points=[];autosize=1;strokeColor=none;fillColor=none;" parent="_c_h5klEpq9rhXISuvbN-18" vertex="1">
          <mxGeometry x="15" y="135" width="120" height="40" as="geometry" />
        </mxCell>
        <mxCell id="_c_h5klEpq9rhXISuvbN-24" value="" style="group" parent="1" vertex="1" connectable="0">
          <mxGeometry x="180" y="-790" width="580" height="590" as="geometry" />
        </mxCell>
        <mxCell id="_c_h5klEpq9rhXISuvbN-23" value="" style="group" parent="_c_h5klEpq9rhXISuvbN-24" vertex="1" connectable="0">
          <mxGeometry x="-150" width="685" height="590" as="geometry" />
        </mxCell>
        <mxCell id="_c_h5klEpq9rhXISuvbN-1" value="IBM Cloud" style="shape=mxgraph.ibm.box;prType=cloud;fontStyle=0;verticalAlign=top;align=left;spacingLeft=32;spacingTop=4;fillColor=none;rounded=0;whiteSpace=wrap;html=1;strokeColor=#4376BB;strokeWidth=3;dashed=0;container=0;spacing=-4;collapsible=0;expand=0;recursiveResize=0;" parent="_c_h5klEpq9rhXISuvbN-23" vertex="1">
          <mxGeometry width="580" height="590" as="geometry" />
        </mxCell>
        <mxCell id="_c_h5klEpq9rhXISuvbN-2" value="Region A" style="shape=mxgraph.ibm.box;prType=region;fontStyle=0;verticalAlign=top;align=left;spacingLeft=32;spacingTop=4;fillColor=none;rounded=0;whiteSpace=wrap;html=1;strokeColor=#919191;strokeWidth=2;dashed=0;container=1;spacing=-4;collapsible=0;expand=0;recursiveResize=0;" parent="_c_h5klEpq9rhXISuvbN-23" vertex="1">
          <mxGeometry x="24.166666666666675" y="40" width="531.6666666666667" height="530" as="geometry" />
        </mxCell>
        <mxCell id="_c_h5klEpq9rhXISuvbN-3" value="VPC 1" style="shape=mxgraph.ibm.box;prType=vpc;fontStyle=0;verticalAlign=top;align=left;spacingLeft=32;spacingTop=4;fillColor=none;rounded=0;whiteSpace=wrap;html=1;strokeColor=#4376BB;strokeWidth=2;dashed=0;container=1;spacing=-4;collapsible=0;expand=0;recursiveResize=0;" parent="_c_h5klEpq9rhXISuvbN-2" vertex="1">
          <mxGeometry x="24.166666666666675" y="30" width="483.3333333333334" height="480" as="geometry" />
        </mxCell>
        <mxCell id="_c_h5klEpq9rhXISuvbN-4" value="Zone 1" style="shape=mxgraph.ibm.box;prType=zone;fontStyle=0;verticalAlign=top;align=left;spacingLeft=32;spacingTop=4;fillColor=#E0E0E0;rounded=0;whiteSpace=wrap;html=1;strokeColor=#919191;strokeWidth=1;dashed=0;container=0;spacing=-4;collapsible=0;expand=0;recursiveResize=0;" parent="_c_h5klEpq9rhXISuvbN-3" vertex="1">
          <mxGeometry x="24.166666666666664" y="37.79160714285714" width="431.54761904761904" height="425.77982142857144" as="geometry" />
        </mxCell>
        <mxCell id="_c_h5klEpq9rhXISuvbN-6" value="Subnet 10.10.20.0/28&lt;br&gt;ACL 3" style="shape=mxgraph.ibm.box;prType=subnet;fontStyle=0;verticalAlign=top;align=left;spacingLeft=32;spacingTop=4;fillColor=#E6F0E2;rounded=0;whiteSpace=wrap;html=1;strokeColor=#00882B;strokeWidth=1;dashed=0;container=1;spacing=-4;collapsible=0;expand=0;recursiveResize=0;" parent="_c_h5klEpq9rhXISuvbN-3" vertex="1">
          <mxGeometry x="72.14999999999999" y="77.74" width="324.52" height="345.89" as="geometry" />
        </mxCell>
        <mxCell id="_c_h5klEpq9rhXISuvbN-8" value="VPN Gateway" style="aspect=fixed;perimeter=ellipsePerimeter;html=1;align=center;shadow=0;dashed=0;fontColor=#4277BB;labelBackgroundColor=none;fontSize=12;spacingTop=3;image;image=img/lib/ibm/vpc/VPNGateway.svg;" parent="_c_h5klEpq9rhXISuvbN-23" vertex="1">
          <mxGeometry x="340.00333333333333" y="281.80892857142857" width="66.375" height="66.375" as="geometry" />
        </mxCell>
        <mxCell id="jj34MWY0AXloyqTfAjvP-1" value="" style="image;aspect=fixed;perimeter=ellipsePerimeter;html=1;align=center;shadow=0;dashed=0;fontColor=#4277BB;labelBackgroundColor=default;fontSize=12;spacingTop=3;image=img/lib/ibm/vpc/VPNConnection.svg;" parent="_c_h5klEpq9rhXISuvbN-23" vertex="1">
          <mxGeometry x="650" y="297.5" width="35" height="35" as="geometry" />
        </mxCell>
        <mxCell id="jj34MWY0AXloyqTfAjvP-4" value="" style="shape=link;html=1;rounded=0;width=-6;" parent="_c_h5klEpq9rhXISuvbN-23" edge="1">
          <mxGeometry width="100" relative="1" as="geometry">
            <mxPoint x="406.38" y="314.5" as="sourcePoint" />
            <mxPoint x="671.38" y="314.5" as="targetPoint" />
          </mxGeometry>
        </mxCell>
        <mxCell id="jj34MWY0AXloyqTfAjvP-6" value="" style="shape=link;html=1;rounded=0;width=-6;" parent="1" source="jj34MWY0AXloyqTfAjvP-1" target="jj34MWY0AXloyqTfAjvP-5" edge="1">
          <mxGeometry width="100" relative="1" as="geometry">
            <mxPoint x="715" y="-475" as="sourcePoint" />
            <mxPoint x="980" y="-475" as="targetPoint" />
          </mxGeometry>
        </mxCell>
      </root>
    </mxGraphModel>
  </diagram>
</mxfile>
